<?xml version="1.0" standalone="no"?>
<!DOCTYPE svg PUBLIC "-//W3C//DTD SVG 20010904//EN"
 "http://www.w3.org/TR/2001/REC-SVG-20010904/DTD/svg10.dtd">
<svg version="1.0" xmlns="http://www.w3.org/2000/svg"
 width="1106.000000pt" height="1106.000000pt" viewBox="0 0 1106.000000 1106.000000"
 preserveAspectRatio="xMidYMid meet">
<metadata>
Created by potrace 1.11, written by Peter Selinger 2001-2013
</metadata>
<g transform="translate(0.000000,1106.000000) scale(0.100000,-0.100000)"
fill="#000000" stroke="none">
<path d="M5510 11023 c-224 -28 -420 -202 -460 -411 -16 -82 -8 -201 18 -265
7 -16 12 -32 12 -36 0 -4 27 -56 60 -117 97 -178 131 -305 125 -474 -4 -101
-7 -120 -31 -214 -22 -85 -49 -133 -87 -153 -27 -15 -62 -18 -237 -19 -236 0
-327 -14 -549 -81 -148 -44 -380 -150 -473 -214 -14 -11 -31 -19 -37 -19 -6 0
-11 -4 -11 -10 0 -5 -5 -10 -10 -10 -6 0 -16 -4 -23 -10 -7 -5 -55 -42 -107
-82 -120 -90 -314 -285 -406 -408 -186 -247 -313 -502 -398 -797 -29 -102 -42
-167 -82 -408 -10 -61 -12 -400 -3 -483 31 -286 98 -531 211 -772 84 -180 147
-280 315 -501 152 -200 151 -278 -5 -519 -95 -147 -208 -322 -270 -420 -19
-30 -45 -71 -57 -90 -91 -142 -124 -194 -216 -342 -57 -92 -138 -221 -179
-288 -106 -170 -344 -551 -351 -561 -3 -5 -25 -12 -50 -15 -209 -26 -374 -154
-449 -349 -29 -76 -36 -224 -15 -304 50 -190 196 -336 385 -386 69 -18 180
-18 249 0 107 27 171 64 248 141 111 109 162 236 158 387 -2 60 1 73 29 120
28 46 273 432 458 723 l64 101 35 -13 34 -14 0 -208 c1 -248 9 -361 41 -557
19 -120 18 -118 47 -215 55 -192 110 -298 239 -462 105 -134 168 -255 205
-393 l26 -100 0 -425 c0 -409 -1 -426 -20 -465 -31 -60 -68 -92 -158 -137 -88
-43 -125 -73 -161 -130 -79 -123 -58 -359 42 -477 41 -49 121 -97 184 -110 76
-17 232 -24 530 -24 250 -1 496 8 555 19 168 31 280 202 274 419 -4 146 -51
218 -181 282 -136 66 -187 132 -206 263 -12 86 -8 311 6 346 26 63 87 73 227
39 241 -58 514 -72 775 -39 19 2 55 7 80 10 25 3 77 12 115 20 39 9 78 17 88
19 10 2 27 7 37 10 10 3 39 6 65 7 83 1 89 -18 100 -322 6 -169 -34 -237 -182
-311 -164 -82 -243 -190 -243 -332 1 -199 109 -349 285 -395 74 -20 148 -23
530 -27 393 -3 501 4 593 38 157 59 264 236 249 413 -12 133 -90 226 -259 308
-49 24 -90 52 -112 77 -40 47 -63 129 -59 209 5 111 5 378 -1 505 -5 116 4
209 27 300 30 112 129 283 239 410 17 19 93 140 120 190 34 64 98 224 98 245
0 9 4 20 9 26 4 5 15 47 24 94 9 47 19 99 23 115 4 17 9 217 11 445 3 228 6
416 8 418 2 2 21 -6 43 -17 33 -17 64 -52 92 -106 6 -12 40 -65 125 -195 34
-52 84 -129 110 -170 27 -41 81 -124 120 -185 161 -247 147 -216 149 -329 3
-122 7 -141 51 -231 169 -343 633 -385 873 -78 89 113 124 285 87 428 -25 98
-64 165 -140 240 -79 79 -134 110 -248 140 l-79 20 -119 190 c-65 105 -123
199 -129 210 -5 11 -29 50 -52 87 -24 37 -108 172 -188 300 -79 128 -172 276
-205 328 -65 102 -342 536 -413 648 -108 170 -107 266 3 412 220 290 360 549
451 830 27 83 69 252 78 315 4 23 8 51 11 64 18 96 24 358 12 511 -37 445
-234 960 -512 1342 -77 105 -276 308 -380 385 -241 179 -538 308 -830 358
-172 30 -204 34 -385 40 -210 8 -263 24 -297 89 -14 25 -17 70 -18 245 -3 309
17 399 121 556 75 114 87 151 88 270 0 81 -5 111 -24 160 -94 242 -320 387
-560 358z m1621 -2640 c13 -16 12 -17 -3 -4 -10 7 -18 15 -18 17 0 8 8 3 21
-13z m-2876 -2831 c-3 -3 -11 0 -18 7 -9 10 -8 11 6 5 10 -3 15 -9 12 -12z
m180 -80 c-3 -3 -11 0 -18 7 -9 10 -8 11 6 5 10 -3 15 -9 12 -12z m162 -48
c-3 -3 -12 -4 -19 -1 -8 3 -5 6 6 6 11 1 17 -2 13 -5z m146 -31 c-7 -2 -21 -2
-30 0 -10 3 -4 5 12 5 17 0 24 -2 18 -5z m1700 0 c-7 -2 -19 -2 -25 0 -7 3 -2
5 12 5 14 0 19 -2 13 -5z m-1506 -19 c-3 -3 -12 -4 -19 -1 -8 3 -5 6 6 6 11 1
17 -2 13 -5z m288 -4 c3 -6 -1 -7 -9 -4 -18 7 -21 14 -7 14 6 0 13 -4 16 -10z
m1028 3 c-7 -2 -19 -2 -25 0 -7 3 -2 5 12 5 14 0 19 -2 13 -5z"/>
</g>
</svg>
